<?xml version="1.0" encoding="UTF-8"?>
<svg id="Layer_2" data-name="Layer 2" xmlns="http://www.w3.org/2000/svg" viewBox="0 0 160 160">
  <defs>
    <style>
      .cls-1 {
        fill: #efbb81;
      }

      .cls-2 {
        fill: #fff9e6;
      }

      .cls-3 {
        fill: none;
        stroke: #bc896f;
        stroke-linecap: round;
        stroke-miterlimit: 10;
        stroke-width: 5px;
      }
    </style>
  </defs>
  <path class="cls-2" d="M135.79,51.37l-2.19-1.31c1.02-5.09.99-10.38-.25-15.44-3.42-13.95-15.84-25.24-30.06-27.32-13.71-2.01-28.27,4.67-35.82,16.25-2.01-2.55-4.54-4.71-7.43-6.19-8.98-4.6-20.42-3.08-28.68,2.71-8.26,5.79-13.45,15.35-15.17,25.3-1.48,8.55-.55,17.37,1.76,25.76-8.27,7.24-13.42,18.16-12.92,29.19.71,15.77,12.9,30.32,28.31,33.78,4.46,1,9.07,1.04,13.55.27,7.94,14.34,26.4,22.02,42.15,17.35,11.48-3.41,20.58-13.11,24.22-24.45,17.75.34,35-12.17,40.13-29.17,5.17-17.12-2.42-37.25-17.59-46.7Z"/>
  <path class="cls-1" d="M46.23,88.34s3.45-14.03,18.17-14.33c0,0,4.83-19.7,26.13-16.41,0,0-13.26,19.61-11.01,33.61,0,0-27.7-5.55-33.3-2.87Z"/>
  <g>
    <path class="cls-3" d="M39.58,89.76c13.07-3.59,27.27-2.6,39.85,2.4,5.78,2.3,11.23,5.44,16.06,9.37"/>
    <path class="cls-3" d="M79.59,92.21c-1.66-19.79,10.16-40.04,28.24-48.28"/>
  </g>
  <g>
    <path class="cls-3" d="M30.18,64.11c-15.03,4.84-25.86,20.43-25.14,36.2.71,15.77,12.9,30.32,28.31,33.78,4.46,1,9.07,1.05,13.55.27,5.8-1,11.38-3.39,16.13-6.87"/>
    <path class="cls-3" d="M67.47,23.53c7.55-11.58,22.12-18.25,35.82-16.24,14.21,2.08,26.63,13.37,30.06,27.32,3.42,13.95-2.36,29.71-13.99,38.14"/>
    <path class="cls-3" d="M135.79,51.37c15.18,9.45,22.76,29.59,17.59,46.7-5.13,17-22.39,29.52-40.13,29.18"/>
    <path class="cls-3" d="M46.88,134.35c7.94,14.34,26.41,22.02,42.15,17.34,16.11-4.78,27.55-21.96,25.75-38.67"/>
    <path class="cls-3" d="M17.95,71.12c-2.31-8.39-3.23-17.21-1.76-25.76,1.72-9.95,6.91-19.5,15.17-25.3,8.26-5.79,19.7-7.31,28.68-2.71,8.98,4.6,14.53,15.66,11.71,25.35"/>
  </g>
</svg>