<?xml version="1.0" encoding="UTF-8"?>
<svg id="Layer_2" data-name="Layer 2" xmlns="http://www.w3.org/2000/svg" viewBox="0 0 512 512">
  <defs>
    <style>
      .cls-1 {
        fill: #ea2f40;
      }

      .cls-2 {
        fill: #bc896f;
      }

      .cls-3 {
        fill: #fff;
      }
    </style>
  </defs>
  <path class="cls-2" d="M502.79,273.63c-7.24-8.48-17.79-13.34-28.94-13.34-14.83,0-27.78,8.44-34.05,20.99-7.02-12.61-20.49-20.99-35.73-20.99s-29.79,9.15-36.53,22.58c-7.39-13.56-21.75-22.58-38.14-22.58s-30.32,8.89-37.79,22.05c-6.53-13.06-20.03-22.05-35.6-22.05s-29.06,8.98-35.59,22.04c-2.2-3.88-5-7.43-8.34-10.52-8.04-7.43-18.5-11.52-29.45-11.52-16.37,0-30.71,9.18-38.1,22.65-6.73-13.47-20.67-22.65-36.57-22.65-11.55,0-22.61,4.92-30.35,13.5-2.09,2.31-3.88,4.84-5.37,7.52-6.27-12.58-19.22-21.02-34.06-21.02-11.15,0-21.7,4.86-28.94,13.34-7.24,8.48-10.4,19.66-8.65,30.68l32.24,203.56c.38,2.38,2.43,4.14,4.84,4.14h436.71c2.41,0,4.46-1.75,4.84-4.14l32.24-203.56c1.74-11.01-1.41-22.2-8.65-30.68Z"/>
  <g>
    <path class="cls-1" d="M93.16,507.1h-55.52L5.4,303.53c-3.19-20.13,12.37-38.35,32.75-38.35h0c16.99,0,31.23,12.84,32.99,29.74l22.02,212.17Z"/>
    <path class="cls-3" d="M156.83,507.1h-63.67l-20.99-202.24c-2.2-21.21,14.44-39.67,35.77-39.67h0c18.99,0,34.71,14.77,35.89,33.72l13,208.2Z"/>
    <path class="cls-1" d="M221.14,507.1h-64.3l-12.66-200.97c-1.4-22.18,16.22-40.94,38.45-40.94h0c21.28,0,38.52,17.25,38.52,38.52v203.39Z"/>
    <path class="cls-1" d="M418.84,507.1h55.52s32.24-203.56,32.24-203.56c3.19-20.13-12.37-38.35-32.75-38.35h0c-16.99,0-31.23,12.84-32.99,29.74l-22.02,212.17Z"/>
    <path class="cls-3" d="M355.17,507.1h63.67s20.99-202.24,20.99-202.24c2.2-21.21-14.44-39.67-35.77-39.67h0c-18.99,0-34.71,14.77-35.89,33.72l-13,208.2Z"/>
    <path class="cls-1" d="M290.86,507.1h64.3s12.66-200.97,12.66-200.97c1.4-22.18-16.22-40.94-38.45-40.94h0c-21.28,0-38.52,17.25-38.52,38.52v203.39Z"/>
    <path class="cls-3" d="M256,265.18h0c19.24,0,34.86,15.62,34.86,34.86v207.05h-69.73v-207.05c0-19.24,15.62-34.86,34.86-34.86Z"/>
  </g>
</svg>