<?xml version="1.0" encoding="UTF-8"?>
<svg id="Layer_2" data-name="Layer 2" xmlns="http://www.w3.org/2000/svg" viewBox="0 0 160 160">
  <defs>
    <style>
      .cls-1 {
        fill: #efbb81;
      }

      .cls-2 {
        fill: #fff9e6;
      }

      .cls-3 {
        fill: none;
        stroke: #bc896f;
        stroke-linecap: round;
        stroke-miterlimit: 10;
        stroke-width: 5px;
      }
    </style>
  </defs>
  <path class="cls-2" d="M141.55,54.2l-1.19-1.08c2.24-6.34,2.8-13.26,1.26-19.82-3.46-14.68-17.17-26.29-32.17-27.24-15-.95-30.06,8.84-35.33,22.96l-.66.91c-8.36-8.75-20.5-13.99-32.57-12.83C21.44,18.99,4.97,37.22,5,56.83c.02,14.71,9.34,28.61,22.2,35.41l-1.03,1.51c-9.79,14.02-7.78,35.07,4.48,46.98,9.86,9.58,25.4,12.3,38.2,7.65,10.56,6.7,24.78,7.6,35.86,1.68,8.89-4.75,15.28-13.62,17.65-23.41,13.33-3.27,25.06-13.17,29.99-26.08,6.01-15.74,1.53-34.94-10.81-46.37Z"/>
  <path class="cls-1" d="M56.92,66.14s13.2-6.78,24.57,7.97c0,0,21.27-3.22,27.61,18.47,0,0-14.14-5.39-40.8,2.97,0,0-1.26-12.95-11.38-29.41Z"/>
  <g>
    <path class="cls-3" d="M53.3,61.39c12.7,15.14,18.19,36.12,14.54,55.57"/>
    <path class="cls-3" d="M69.66,97.67c14.42-10.43,35.6-10.22,49.8.5"/>
  </g>
  <g>
    <path class="cls-3" d="M41.02,96.43c-19.45-1.81-35.98-19.99-36.02-39.6S21.44,18.99,40.88,17.11c19.44-1.88,39.08,12.87,42.77,32.12"/>
    <path class="cls-3" d="M74.12,29.03c5.27-14.12,20.33-23.91,35.33-22.96,15,.95,28.71,12.56,32.17,27.24,3.46,14.68-3.61,31.23-16.6,38.82"/>
    <path class="cls-3" d="M141.55,54.2c12.34,11.43,16.82,30.63,10.81,46.37-6.01,15.74-22.12,27.02-38.91,27.24"/>
    <path class="cls-3" d="M122.37,126.65c-2.37,9.79-8.77,18.66-17.66,23.4-11.07,5.91-25.27,5.03-35.82-1.65"/>
    <path class="cls-3" d="M26.16,93.75c-9.79,14.02-7.78,35.07,4.48,46.98,9.88,9.6,25.46,12.32,38.28,7.63,3.08-1.13,6-2.68,8.65-4.68"/>
  </g>
</svg>